<svg width="144" height="21" viewBox="0 0 144 21" fill="none" xmlns="http://www.w3.org/2000/svg">
<g clip-path="url(#clip0_159_8277)">
<path fill-rule="evenodd" clip-rule="evenodd" d="M53.8735 8.33613L53.8735 17.1891H50.6047L50.6047 8.33613H47.3047L47.3047 5.51849H57.1759L57.1759 8.33613H53.8735ZM60.7951 10.4703C60.1051 10.4703 59.7175 10.9373 59.6167 11.8032H62.1439C61.9915 10.9208 61.6879 10.4703 60.7951 10.4703ZM64.8043 13.6702H59.6167C59.7175 14.6373 60.2887 15.0703 61.1155 15.0703C61.8895 15.0703 62.5315 14.9055 63.4075 14.455L64.5679 16.3726C63.4735 17.0044 62.3443 17.3726 60.9631 17.3726C58.3015 17.3726 56.8363 15.5044 56.8363 12.8197C56.8363 9.80319 58.5547 8.2526 60.8803 8.2526C63.3043 8.2526 64.8211 9.83731 64.8211 13.0879C64.8211 13.3373 64.8211 13.5208 64.8043 13.6714L64.8043 13.6702ZM70.4455 17.3714C67.8523 17.3714 66.3019 15.7385 66.3019 12.7879C66.3019 10.1032 67.6831 8.25378 70.5139 8.25378C72.1819 8.25378 73.1419 9.01966 73.9159 10.2538L71.8279 11.8197C71.4067 11.0538 71.1199 10.6867 70.4635 10.6867C69.6871 10.6867 69.2995 11.4538 69.2995 12.8373C69.2995 14.222 69.7219 14.9373 70.5475 14.9373C71.1187 14.9373 71.5231 14.6208 72.0787 13.8044L73.9999 15.2867C72.9727 16.7879 72.0115 17.3714 70.4455 17.3714ZM80.7871 17.1891L80.7871 12.2208C80.7871 11.0867 80.3995 10.7867 79.7767 10.7867C79.1359 10.7867 78.7483 11.0867 78.7483 12.1867L78.7483 17.1891H75.7171L75.7171 6.23613L78.7483 5.03613L78.7483 9.01966C79.3039 8.60319 79.9267 8.2526 80.9719 8.2526C82.9099 8.2526 83.8363 9.53613 83.8363 11.8373L83.8363 17.1891H80.7871ZM91.0939 17.3714C87.5899 17.3714 85.7203 14.8044 85.7203 11.3538C85.7203 7.60202 87.9439 5.33613 91.1107 5.33613C94.0087 5.33613 95.1547 6.56907 95.9623 8.77025L92.9983 9.91966C92.5771 8.83731 92.1727 8.1526 91.0939 8.1526C89.7307 8.1526 89.1403 9.50319 89.1403 11.3526C89.1403 13.1373 89.7127 14.5538 91.1287 14.5538C92.1559 14.5538 92.5927 14.0044 93.2335 12.9044L95.9959 14.3538C95.2039 15.8879 93.8899 17.3714 91.0939 17.3714ZM103.455 11.7373C103.067 11.3208 102.631 11.0032 102.04 11.0032C101.299 11.0032 100.844 11.3538 100.844 12.4208L100.844 17.1891H97.8127L97.8127 8.43613H100.844L100.844 9.06907C101.367 8.56907 101.956 8.2526 102.731 8.2526C103.371 8.2526 103.81 8.40319 104.163 8.61966L103.455 11.7373ZM110.665 17.1891L110.665 16.6044C110.125 17.0208 109.485 17.3714 108.458 17.3714C106.52 17.3714 105.593 16.0891 105.593 13.7867L105.593 8.43613H108.644L108.644 13.4044C108.644 14.5373 109.03 14.8373 109.654 14.8373C110.277 14.8373 110.665 14.5373 110.665 13.4373L110.665 8.43613H113.713L113.713 17.1891H110.665ZM120.973 17.1891L120.973 12.2208C120.973 11.0867 120.585 10.7867 119.961 10.7867C119.32 10.7867 118.933 11.0867 118.933 12.1867L118.933 17.1891H115.901L115.901 8.43613H118.933L118.933 9.01966C119.489 8.60319 120.112 8.2526 121.157 8.2526C123.094 8.2526 124.021 9.53613 124.021 11.8373L124.021 17.1891H120.973ZM129.931 17.3714C127.337 17.3714 125.787 15.7385 125.787 12.7879C125.787 10.1032 127.168 8.25378 129.999 8.25378C131.667 8.25378 132.627 9.01966 133.401 10.2538L131.313 11.8197C130.892 11.0538 130.605 10.6867 129.949 10.6867C129.173 10.6867 128.785 11.4538 128.785 12.8373C128.785 14.222 129.207 14.9373 130.033 14.9373C130.604 14.9373 131.008 14.6208 131.564 13.8044L133.485 15.2867C132.458 16.7879 131.497 17.3714 129.931 17.3714ZM140.272 17.1891L140.272 12.2208C140.272 11.0867 139.885 10.7867 139.262 10.7867C138.621 10.7867 138.233 11.0867 138.233 12.1867L138.233 17.1891H135.202L135.202 6.23613L138.233 5.03613L138.233 9.01966C138.789 8.60319 139.412 8.2526 140.457 8.2526C142.395 8.2526 143.321 9.53613 143.321 11.8373L143.321 17.1891H140.272Z" fill="#54616C"/>
<path fill-rule="evenodd" clip-rule="evenodd" d="M0 0.522461L4.28867e-10 7.18952H6.7368L6.7368 20.5225H13.4736L13.4736 7.18952H20.2104L20.2104 0.522461H0ZM26.9472 13.8554L26.9472 7.18952H20.2104L20.2104 20.5225H40.4208L40.4208 13.8554H26.9472ZM26.9472 7.18952H40.4208L40.4208 0.522461H26.9472L26.9472 7.18952Z" fill="#54616C"/>
</g>
<defs>
<clipPath id="clip0_159_8277">
<rect width="144" height="20" fill="white" transform="translate(0 0.522461)"/>
</clipPath>
</defs>
</svg>
